<svg width="81" height="80" viewBox="0 0 81 80" fill="none" xmlns="http://www.w3.org/2000/svg">
<g id="Clock 1">
<path id="Vector" d="M40.5 26.6667V40L50.625 50M70.875 40C70.875 43.9397 70.0893 47.8407 68.5628 51.4805C67.0364 55.1203 64.7989 58.4274 61.9784 61.2132C59.1578 63.999 55.8093 66.2087 52.124 67.7164C48.4387 69.224 44.4889 70 40.5 70C36.5111 70 32.5613 69.224 28.876 67.7164C25.1907 66.2087 21.8422 63.999 19.0216 61.2132C16.2011 58.4274 13.9636 55.1203 12.4372 51.4805C10.9107 47.8407 10.125 43.9397 10.125 40C10.125 32.0435 13.3252 24.4129 19.0216 18.7868C24.718 13.1607 32.444 10 40.5 10C48.556 10 56.2819 13.1607 61.9784 18.7868C67.6748 24.4129 70.875 32.0435 70.875 40Z" stroke="black" stroke-width="2" stroke-linecap="round" stroke-linejoin="round"/>
</g>
</svg>
