<svg width="81" height="80" viewBox="0 0 81 80" fill="none" xmlns="http://www.w3.org/2000/svg">
<g id="ClipboardList (1) 1">
<path id="Vector" d="M30.375 16.6667H23.625C21.8348 16.6667 20.1179 17.369 18.852 18.6193C17.5862 19.8695 16.875 21.5652 16.875 23.3333V63.3333C16.875 65.1014 17.5862 66.7971 18.852 68.0474C20.1179 69.2976 21.8348 70 23.625 70H57.375C59.1652 70 60.8821 69.2976 62.148 68.0474C63.4138 66.7971 64.125 65.1014 64.125 63.3333V23.3333C64.125 21.5652 63.4138 19.8695 62.148 18.6193C60.8821 17.369 59.1652 16.6667 57.375 16.6667H50.625M30.375 16.6667C30.375 18.4348 31.0862 20.1305 32.352 21.3807C33.6179 22.631 35.3348 23.3333 37.125 23.3333H43.875C45.6652 23.3333 47.3821 22.631 48.648 21.3807C49.9138 20.1305 50.625 18.4348 50.625 16.6667M30.375 16.6667C30.375 14.8986 31.0862 13.2029 32.352 11.9526C33.6179 10.7024 35.3348 10 37.125 10H43.875C45.6652 10 47.3821 10.7024 48.648 11.9526C49.9138 13.2029 50.625 14.8986 50.625 16.6667M40.5 40H50.625M40.5 53.3333H50.625M30.375 40H30.4088M30.375 53.3333H30.4088" stroke="black" stroke-width="2" stroke-linecap="round" stroke-linejoin="round"/>
</g>
</svg>
