<svg width="88" height="88" viewBox="0 0 88 88" fill="none" xmlns="http://www.w3.org/2000/svg">
<g id="Truck 1">
<path id="Vector" d="M33 62.3333C33 64.2783 32.2274 66.1435 30.8521 67.5188C29.4769 68.894 27.6116 69.6667 25.6667 69.6667C23.7218 69.6667 21.8565 68.894 20.4812 67.5188C19.106 66.1435 18.3333 64.2783 18.3333 62.3333C18.3333 60.3884 19.106 58.5232 20.4812 57.1479C21.8565 55.7726 23.7218 55 25.6667 55C27.6116 55 29.4769 55.7726 30.8521 57.1479C32.2274 58.5232 33 60.3884 33 62.3333ZM69.6667 62.3333C69.6667 64.2783 68.8941 66.1435 67.5188 67.5188C66.1435 68.894 64.2783 69.6667 62.3333 69.6667C60.3884 69.6667 58.5232 68.894 57.1479 67.5188C55.7726 66.1435 55 64.2783 55 62.3333C55 60.3884 55.7726 58.5232 57.1479 57.1479C58.5232 55.7726 60.3884 55 62.3333 55C64.2783 55 66.1435 55.7726 67.5188 57.1479C68.8941 58.5232 69.6667 60.3884 69.6667 62.3333Z" stroke="black" stroke-width="2"/>
<path id="Vector_2" d="M47.6667 58.6668V22.0002C47.6667 21.0277 47.2804 20.0951 46.5927 19.4074C45.9051 18.7198 44.9725 18.3335 44 18.3335H14.6667C13.6942 18.3335 12.7616 18.7198 12.0739 19.4074C11.3863 20.0951 11 21.0277 11 22.0002V58.6668C11 59.6393 11.3863 60.5719 12.0739 61.2596C12.7616 61.9472 13.6942 62.3335 14.6667 62.3335H18.3333M47.6667 58.6668C47.6667 59.6393 47.2804 60.5719 46.5927 61.2596C45.9051 61.9472 44.9725 62.3335 44 62.3335H33M47.6667 58.6668V29.3335C47.6667 28.361 48.053 27.4284 48.7406 26.7408C49.4282 26.0531 50.3609 25.6668 51.3333 25.6668H60.8153C61.7877 25.667 62.7202 26.0535 63.4077 26.7412L75.9257 39.2592C76.6134 39.9466 76.9998 40.8791 77 41.8515V58.6668C77 59.6393 76.6137 60.5719 75.9261 61.2596C75.2384 61.9472 74.3058 62.3335 73.3333 62.3335H69.6667M47.6667 58.6668C47.6667 59.6393 48.053 60.5719 48.7406 61.2596C49.4282 61.9472 50.3609 62.3335 51.3333 62.3335H55M18.3333 62.3335C18.3333 64.2784 19.106 66.1437 20.4812 67.5189C21.8565 68.8942 23.7217 69.6668 25.6667 69.6668C27.6116 69.6668 29.4768 68.8942 30.8521 67.5189C32.2274 66.1437 33 64.2784 33 62.3335M18.3333 62.3335C18.3333 60.3886 19.106 58.5233 20.4812 57.148C21.8565 55.7728 23.7217 55.0002 25.6667 55.0002C27.6116 55.0002 29.4768 55.7728 30.8521 57.148C32.2274 58.5233 33 60.3886 33 62.3335M69.6667 62.3335C69.6667 64.2784 68.894 66.1437 67.5188 67.5189C66.1435 68.8942 64.2783 69.6668 62.3333 69.6668C60.3884 69.6668 58.5232 68.8942 57.1479 67.5189C55.7726 66.1437 55 64.2784 55 62.3335M69.6667 62.3335C69.6667 60.3886 68.894 58.5233 67.5188 57.148C66.1435 55.7728 64.2783 55.0002 62.3333 55.0002C60.3884 55.0002 58.5232 55.7728 57.1479 57.148C55.7726 58.5233 55 60.3886 55 62.3335" stroke="black" stroke-width="2" stroke-linecap="round" stroke-linejoin="round"/>
</g>
</svg>
